<?xml version="1.0" encoding="utf-8"?>
<!-- Generator: Adobe Illustrator 24.0.1, SVG Export Plug-In . SVG Version: 6.00 Build 0)  -->
<svg version="1.1" id="Layer_1" xmlns="http://www.w3.org/2000/svg" xmlns:xlink="http://www.w3.org/1999/xlink" x="0px" y="0px"
	 viewBox="0 0 280 104.8" style="enable-background:new 0 0 280 104.8;" xml:space="preserve">
<style type="text/css">
	.st0{fill:#283681;}
	.st1{fill:#FFFFFF;}
	.st2{fill:#86181E;}
</style>
<g transform="matrix(.081 0 0 .081 1297.1 -218.44)">
	<g>
		<rect x="-15997.3" y="2709.3" class="st0" width="3431.6" height="1269.8"/>
	</g>
	<path class="st1" d="M-15641.4,2981.1v109.6h129.3v252.8h130.4v-253.3h126.9v-109.1C-15254.9,2981.1-15641.4,2981.1-15641.4,2981.1
		z M-14525.5,2983.4c-0.2,3.1,0,6.3,0,8.9c-0.1,75.3-0.2,150.6,0.1,225.9c0,11.6,1.2,23.4,3.8,34.7c7.7,33.4,25.4,59.4,56.6,75.8
		c24.3,12.8,50.1,20.1,76.9,23.5c49.1,6.2,98.4,6.3,147.5,0.2c29.3-3.6,57.4-11.9,83.1-26.8c27-15.7,44.5-38.5,51.8-69.1
		c5.5-22.8,6.7-46.1,6.8-69.4c0.3-64.6,0.1-129.3,0.1-193.9c0-2.9,0.3-6.5,0.1-9.2h-128.8v12.3c-0.1,65.3,0,130.6-0.4,195.9
		c0,11.2-1.6,22.6-4.2,33.5c-4.4,18.4-15.4,32.2-32.7,40.6c-28.4,13.7-57.5,13.5-86.4,3.2c-27.4-9.8-42-30.6-44.4-59.6
		c-0.8-10.6-1.1-21.2-1.1-31.9c-0.1-60.6,0-121.3,0-181.9c0-3.6-0.1-8-0.1-12.7L-14525.5,2983.4L-14525.5,2983.4z M-13565.5,2984.1
		c-10.1,26.1-20.1,51.8-30.1,77.5c-10.1,26-20,52.2-30.2,78.2c-9.9,25.5-19.2,51.2-30.6,78c-30.7-79.4-60.5-156.6-90.3-233.6h-170.5
		v359.1h126.1v-222.4l1.8-0.3c27.3,74.5,54.7,148.9,81.9,223h100c27.7-74.6,55.3-149.2,82.9-223.8c0.8,0.2,1.7,0.3,2.5,0.5V3343
		h126.4v-358.9L-13565.5,2984.1L-13565.5,2984.1z M-15085.8,2986.7c-2.5,0-5.1,0.3-7.8,0.5V3345h128.6v-128.5h68.6
		c24.6,43.5,49,86.7,73.3,129.7h143.1c-30.1-48-59.6-95-89.5-142.7c5.6-1.7,10.2-3.1,14.9-4.5c32-10,53.1-31.1,62.7-63.1
		c8.6-28.5,6.8-56.6-5-84c-13.4-31.1-36.4-51.1-69.5-59.2c-17-4.1-34.1-5.9-51.5-5.9C-14907.2,2986.8-14996.5,2986.7-15085.8,2986.7
		L-15085.8,2986.7z M-13101.1,2986.9c-38.6,0-77.3,0.1-115.9,0.1c-2.5,0-5.1,0.3-7.5,0.5c0,67.8,0.5,183.3,0.5,359.8h127.2v-126.5
		h12.3c40.7-0.2,81.4,0.1,122-0.6c26.5-0.4,52.4-5.1,76.4-17.1c26.2-13.1,43.2-34,51.2-62c6.4-22.5,7.4-45.5,2.5-68.3
		c-10.3-48.2-37-74.2-81.1-80.4c-23.6-3.3-47.7-5-71.6-5.2C-13023.8,2986.9-13062.5,2986.9-13101.1,2986.9L-13101.1,2986.9z
		 M-14909.5,3068.4c15.5,0,30.9,0,46.4,0.1c7.3,0,14.7,0.5,21.8,1.9c15.1,2.9,24.5,14.3,25.2,29.3c0.8,16.7-6.4,27-22.8,31.6
		c-6.3,1.7-13,2.7-19.6,2.8c-33.9,0.2-67.8,0.1-101.7,0.1c-1.3,0-2.6-0.3-4.6-0.5v-64.8c3.2-0.2,6.1-0.4,8.9-0.5
		C-14940.4,3068.4-14924.9,3068.4-14909.5,3068.4L-14909.5,3068.4z M-13090.9,3068.7c30,0,59.9,0,89.9,0.2c4.6,0.1,9.3,0.6,13.9,1.3
		c16.4,2.6,26.8,14.3,28.1,31.4c1.3,17.9-6.3,30-23.1,34.9c-6.9,2-14.4,2.8-21.6,2.9c-29.3,0.3-58.6,0.1-87.9,0.1
		c-1.3,0-2.6-0.3-4.9-0.6v-69.2C-13094.6,3069.3-13092.7,3068.7-13090.9,3068.7L-13090.9,3068.7z"/>
	<path class="st2" d="M-14517.3,2747.3l-8.6,17.3l-19.2,2.8l13.9,13.5l-3.3,19.1l17.2-9l17.1,9l-3.3-19.1l13.9-13.5l-19.2-2.8
		L-14517.3,2747.3L-14517.3,2747.3z M-14398.6,2747.3l-8.6,17.3l-19.2,2.8l13.9,13.5l-3.3,19.1l17.2-9l17.1,9l-3.3-19.1l13.9-13.5
		l-19.1-2.8L-14398.6,2747.3L-14398.6,2747.3z M-14282.3,2747.3l-8.6,17.3l-19.1,2.8l13.8,13.5l-3.2,19.1l17.1-9l17.2,9l-3.3-19.1
		l13.9-13.5l-19.2-2.8L-14282.3,2747.3L-14282.3,2747.3z M-14162.3,2747.3l-8.6,17.3l-19.1,2.8l13.8,13.5l-3.2,19.1l17.1-9l17.2,9
		l-3.3-19.1l13.9-13.5l-19.2-2.8L-14162.3,2747.3L-14162.3,2747.3z M-14045.5,2747.3l-8.5,17.3l-19.2,2.8l13.9,13.5l-3.3,19.1
		l17.1-9l17.2,9l-3.3-19.1l13.9-13.5l-19.2-2.8L-14045.5,2747.3L-14045.5,2747.3z M-15927.6,2770.4c-1.9,0-3.9,0.4-5.9,0.6
		c-0.3,0.1-0.5,0.3-0.8,0.5l-0.7,0.7c-2,12-1.4,1134.1,0.7,1141.8h1303.9v-17.4h-15.5h-1251.9c-3.3,0-6.7,0.1-10-0.1
		c-2.6-0.2-5.1-0.7-7.4-1c-0.5-1.7-1-2.6-1-3.6c-0.1-363.9-0.2-727.9-0.2-1091.9c0-2.3,0.4-4.6,0.7-6.9c0-0.3,0.2-0.6,0.4-0.9
		s0.5-0.5,2-1.8h73.5h76h75h76h75h75h76h75h76h75h76h75h75h76h75h76c24.8-0.1,49.7,0.2,74.8-0.2v-19.5h-3.7L-15927.6,2770.4
		L-15927.6,2770.4z M-13928.6,2770.7v19.8h128.9h128h129h128h128h128h128h129c42.7,0,85.3-0.1,128,0c42.5,0.1,85-0.5,127.3,0.4
		c0.5,2.8,1,4.1,1,5.4c0.1,364.6,0.1,729.3,0.1,1093.9c0,2-0.4,3.9-0.7,5.9c-0.1,0.3-0.3,0.7-0.5,0.9c-0.2,0.3-0.5,0.5-2.1,1.9
		h-1282.6v17.7h2.3h5c431,0,861.9,0,1292.9-0.1c1,0,1.9-0.3,2.9-0.6c0.3-0.1,0.6-0.4,0.8-0.6c0.3-0.3,0.5-0.5,1-1.1
		c0.2-0.9,0.6-2.2,0.6-3.5c0.1-377.6,0.1-755.3,0.1-1132.9c0-1.6-0.4-3.3-0.7-4.9c0-0.3-0.3-0.6-0.5-0.8s-0.5-0.4-1-0.9
		c-1-0.1-2.3-0.5-3.6-0.5h-1291.9H-13928.6L-13928.6,2770.7z M-14516.1,3873.8l-8.6,17.4l-19.2,2.8l13.9,13.5l-3.3,19.1l17.2-9
		l17.1,9l-3.3-19.1l13.9-13.5l-19.2-2.8L-14516.1,3873.8z M-14398.1,3873.8l-8.6,17.4l-19.2,2.8l13.9,13.5l-3.3,19.1l17.2-9l17.1,9
		l-3.3-19.1l13.9-13.5l-19.1-2.8L-14398.1,3873.8L-14398.1,3873.8z M-14281.5,3873.8l-8.5,17.4l-19.2,2.8l13.9,13.5l-3.3,19.1
		l17.1-9l17.2,9l-3.3-19.1l13.9-13.5l-19.2-2.8L-14281.5,3873.8L-14281.5,3873.8z M-14161.6,3873.8l-8.6,17.4l-19.2,2.8l13.9,13.5
		l-3.3,19.1l17.2-9l17.1,9l-3.3-19.1l13.9-13.5l-19.2-2.8L-14161.6,3873.8z M-14044.3,3873.8l-8.6,17.4l-19.1,2.8l13.8,13.5
		l-3.2,19.1l17.1-9l17.2,9l-3.3-19.1l13.9-13.5l-19.2-2.8L-14044.3,3873.8L-14044.3,3873.8z"/>
</g>
<g>
	<path class="st1" d="M80.7,80.3c-1.8,0-3.8-0.5-5.4-1.4l1.2-2.5c1.5,0.8,2.8,1.3,4.4,1.3c1.8,0,2.8-0.8,2.8-2.2
		c0-1-0.7-1.7-2.1-2.1l-1.8-0.5c-1.6-0.4-2.6-1.1-3.2-2c-0.4-0.7-0.7-1.5-0.7-2.4c0-2.9,2.3-4.9,5.7-4.9c2,0,3.9,0.6,5.3,1.6
		l-1.5,2.3c-1.4-0.9-2.5-1.2-3.7-1.2c-1.3,0-2.2,0.8-2.2,1.8c0,0.8,0.4,1.2,1.8,1.6l1.9,0.5c2.6,0.7,4,2.4,4,4.8
		C87.3,78.2,84.6,80.3,80.7,80.3z"/>
	<path class="st1" d="M97.9,78.6c-0.9,1-2.1,1.6-3.9,1.6c-3.2,0-5.3-2.4-5.3-6.1S90.9,68,94,68c1.7,0,3,0.6,4,1.8
		c0.9,1.1,1.4,2.4,1.4,4.3C99.4,76.1,98.9,77.4,97.9,78.6z M95.4,70.9c-0.3-0.4-0.8-0.6-1.3-0.6c-0.7,0-1.3,0.5-1.6,1.2
		c-0.2,0.6-0.3,1.4-0.3,2.6c0,1.4,0.1,2.4,0.4,3c0.3,0.6,1,1,1.6,1c1.3,0,1.9-1.2,1.9-4C96,72.4,95.8,71.4,95.4,70.9z"/>
	<path class="st1" d="M104.7,80.2c-1.3,0-2.4-0.6-2.7-1.6c-0.2-0.6-0.3-1-0.3-2.6v-8.8c0-1.5,0-2.5-0.2-3.5l3.2-0.7
		c0.1,0.6,0.2,1.4,0.2,3.1v9.2c0,2,0,2.3,0.2,2.6c0.1,0.2,0.4,0.3,0.6,0.3c0.1,0,0.2,0,0.3,0l0.5,1.8
		C106,80.1,105.4,80.2,104.7,80.2z"/>
	<path class="st1" d="M116,80.6c-0.7-0.3-1.4-0.8-1.7-1.4c-0.2,0.2-0.5,0.5-0.7,0.6c-0.6,0.4-1.4,0.6-2.4,0.6c-2.6,0-4-1.3-4-3.7
		c0-2.8,1.9-4,5.7-4c0.2,0,0.4,0,0.7,0v-0.5c0-1.3-0.3-1.7-1.4-1.7c-1,0-2.1,0.5-3.4,1.3l-1.3-2.2c0.6-0.4,1.1-0.6,1.9-1
		c1.1-0.5,2.1-0.7,3.2-0.7c2,0,3.3,0.7,3.8,2c0.2,0.5,0.2,0.9,0.2,2.1l-0.1,4c0,1.3,0.1,1.8,1.1,2.6L116,80.6z M113.4,74.8
		c-2.1,0-2.9,0.4-2.9,1.8c0,0.9,0.6,1.5,1.4,1.5c0.6,0,1.1-0.3,1.6-0.8l0-2.5H113.4z"/>
	<path class="st1" d="M125.7,70.9c-0.3-0.2-0.6-0.2-0.9-0.2c-0.7,0-1.3,0.3-1.9,1V80h-3.1v-7.9c0-1.6-0.2-2.8-0.4-3.4l2.8-0.7
		c0.3,0.5,0.4,1,0.5,1.7c0.7-0.9,1.6-1.7,2.8-1.7c0.5,0,0.7,0,1.1,0.3L125.7,70.9z"/>
	<path class="st1" d="M135.6,75L135.6,75c0,1.9,0.9,2.9,2.5,2.9c1.1,0,2-0.4,3-1.2l1.2,1.8c-1.4,1.1-2.8,1.6-4.4,1.6
		c-3.4,0-5.6-2.4-5.6-6.1c0-2.1,0.4-3.5,1.5-4.7c1-1.1,2.1-1.6,3.7-1.6c1.4,0,2.6,0.5,3.4,1.2c1.1,1.1,1.6,2.7,1.6,5.2V75H135.6z
		 M139.2,72.7c0-0.9-0.1-1.3-0.4-1.8c-0.3-0.5-0.7-0.7-1.4-0.7c-1.2,0-1.8,0.9-1.8,2.6v0h3.6V72.7z"/>
	<path class="st1" d="M150.9,80v-7.7c0-1.3-0.2-1.7-1-1.7c-0.6,0-1.4,0.4-2.1,1.1V80h-3.1v-8.5c0-1-0.1-2-0.4-2.8l2.7-0.8
		c0.3,0.5,0.4,1,0.4,1.5c0.5-0.3,0.9-0.6,1.4-0.9c0.6-0.3,1.4-0.5,2.1-0.5c1.3,0,2.5,0.7,2.8,1.7c0.2,0.4,0.2,0.9,0.2,1.7V80H150.9z
		"/>
	<path class="st1" d="M159.8,75L159.8,75c0,1.9,0.9,2.9,2.5,2.9c1.1,0,2-0.4,3-1.2l1.2,1.8c-1.4,1.1-2.8,1.6-4.4,1.6
		c-3.4,0-5.6-2.4-5.6-6.1c0-2.1,0.4-3.5,1.5-4.7c1-1.1,2.1-1.6,3.7-1.6c1.4,0,2.6,0.5,3.4,1.2c1.1,1.1,1.6,2.7,1.6,5.2V75H159.8z
		 M163.4,72.7c0-0.9-0.1-1.3-0.4-1.8c-0.3-0.5-0.7-0.7-1.4-0.7c-1.2,0-1.8,0.9-1.8,2.6v0h3.6V72.7z"/>
	<path class="st1" d="M174.6,70.9c-0.3-0.2-0.6-0.2-0.9-0.2c-0.7,0-1.3,0.3-1.9,1V80h-3.1v-7.9c0-1.6-0.2-2.8-0.4-3.4l2.8-0.7
		c0.3,0.5,0.4,1,0.5,1.7c0.7-0.9,1.6-1.7,2.8-1.7c0.5,0,0.7,0,1.1,0.3L174.6,70.9z"/>
	<path class="st1" d="M185.9,70.4c-0.3,0-0.6,0-0.8-0.1c0.5,0.6,0.7,1.1,0.7,1.9c0,2-1.8,3.5-4.3,3.5c-0.1,0-0.2,0-0.5,0
		c-0.8,0.4-1.2,0.6-1.2,1c0,0.2,0.2,0.3,0.5,0.3l1.7,0c1.8,0,2.7,0.3,3.6,1.1c0.7,0.6,1,1.4,1,2.5c0,1-0.3,1.7-0.9,2.4
		c-1,1.1-2.8,1.5-4.6,1.5c-1.7,0-3.4-0.3-4.5-1.3c-0.6-0.6-1-1.3-1-2.1c0-0.6,0.2-1,0.3-1.2h2.9c-0.1,0.3-0.1,0.4-0.1,0.8
		c0,0.9,0.8,1.4,2.2,1.4c0.8,0,1.4-0.1,1.9-0.4c0.5-0.3,0.8-0.7,0.8-1.2c0-1.1-0.9-1.4-2.2-1.4l-1.3,0c-1.4,0-2.3-0.1-2.8-0.4
		c-0.6-0.2-0.9-0.7-0.9-1.5c0-0.8,0.2-1.5,2.2-2c-1.7-0.4-2.5-1.5-2.5-3.3c0-2.4,2-4,5-4c0.7,0,1.3,0.1,2.1,0.3
		c0.6,0.2,1.1,0.3,1.4,0.3c0.9,0,1.7-0.4,2.4-1l1.3,2C187.4,70.1,186.8,70.4,185.9,70.4z M180.8,70.2c-1.2,0-1.8,0.6-1.8,1.7
		c0,1.2,0.7,1.7,1.8,1.7c1.2,0,1.9-0.6,1.9-1.7C182.6,70.9,181.9,70.2,180.8,70.2z"/>
	<path class="st1" d="M195,80.1c-0.8,2.3-1.4,3.3-2.3,3.9c-0.8,0.6-1.8,0.9-2.9,1.1l-1.1-2c0.7-0.2,1.4-0.5,1.9-0.8
		c0.3-0.3,0.6-0.6,0.9-1c0.3-0.5,0.4-0.7,0.7-1.4h-0.8c-0.4-1.1-1-2.9-1.1-3.3l-2.8-8.3l3.2-0.4l2,6.9c0.2,0.7,0.6,2.3,0.6,2.4
		c0-0.1,0.2-1.3,0.4-1.9c0.1-0.4,0.3-1.1,0.5-1.6l1.8-5.6h3.2L195,80.1z"/>
</g>
</svg>
